<?xml version="1.0" encoding="UTF-8"?><svg id="Layer_2" xmlns="http://www.w3.org/2000/svg" viewBox="0 0 180.39 255.13"><defs><style>.cls-1{fill:none;}.cls-2{fill:#231f20;}</style></defs><g id="V"><g><polygon class="cls-2" points="99.48 255.13 99.48 206.14 77.22 255.02 99.48 255.13"/><g><polygon points="162.8 0 77.22 188.51 77.22 226.97 77.34 227.02 180.39 0 162.8 0"/><polygon points="62.99 131.23 63 131.24 63 131.23 62.99 131.23"/><polygon points="85.87 141.89 77.2 123.83 73.38 115.88 73.39 115.87 62.99 94.22 59.17 86.26 20.11 4.89 17.76 0 0 0 2.35 4.89 48.77 101.61 62.99 131.21 63 131.23 63 131.24 77.2 160.83 77.44 160.48 85.87 141.89"/></g></g><g><polygon class="cls-1" points="135.07 0 98.73 82.91 92 98.27 85.85 84.24 48.92 0 135.07 0"/><polygon points="150.3 0 98.73 111.86 92 126.46 85.85 113.12 33.69 0 48.92 0 85.85 84.24 92 98.27 98.73 82.91 135.07 0 150.3 0"/></g></g></svg>